<mxfile host="app.diagrams.net" modified="2024-08-12T14:18:39.460Z" agent="Mozilla/5.0 (Windows NT 10.0; Win64; x64) AppleWebKit/537.36 (KHTML, like Gecko) Chrome/127.0.0.0 Safari/537.36 Edg/127.0.0.0" etag="QSDhcp0wX4FHZo_YJXW1" version="24.3.1" type="github">
  <diagram name="Страница — 1" id="fQPavnhcg6u5xAgqIPbY">
    <mxGraphModel dx="1386" dy="737" grid="1" gridSize="10" guides="1" tooltips="1" connect="1" arrows="1" fold="1" page="1" pageScale="1" pageWidth="827" pageHeight="1169" math="0" shadow="0">
      <root>
        <mxCell id="0" />
        <mxCell id="1" parent="0" />
        <mxCell id="OFwXLJdeoRznw6b8OGi2-5" value="" style="edgeStyle=orthogonalEdgeStyle;rounded=0;orthogonalLoop=1;jettySize=auto;html=1;" edge="1" parent="1" source="OFwXLJdeoRznw6b8OGi2-1" target="OFwXLJdeoRznw6b8OGi2-4">
          <mxGeometry relative="1" as="geometry" />
        </mxCell>
        <mxCell id="OFwXLJdeoRznw6b8OGi2-1" value="Начало" style="ellipse;whiteSpace=wrap;html=1;" vertex="1" parent="1">
          <mxGeometry x="354" y="70" width="120" height="80" as="geometry" />
        </mxCell>
        <mxCell id="OFwXLJdeoRznw6b8OGi2-7" value="" style="edgeStyle=orthogonalEdgeStyle;rounded=0;orthogonalLoop=1;jettySize=auto;html=1;" edge="1" parent="1" source="OFwXLJdeoRznw6b8OGi2-4" target="OFwXLJdeoRznw6b8OGi2-6">
          <mxGeometry relative="1" as="geometry" />
        </mxCell>
        <mxCell id="OFwXLJdeoRznw6b8OGi2-4" value="Создание объекта User" style="whiteSpace=wrap;html=1;" vertex="1" parent="1">
          <mxGeometry x="354" y="180" width="120" height="60" as="geometry" />
        </mxCell>
        <mxCell id="OFwXLJdeoRznw6b8OGi2-9" value="" style="edgeStyle=orthogonalEdgeStyle;rounded=0;orthogonalLoop=1;jettySize=auto;html=1;" edge="1" parent="1" source="OFwXLJdeoRznw6b8OGi2-6" target="OFwXLJdeoRznw6b8OGi2-8">
          <mxGeometry relative="1" as="geometry" />
        </mxCell>
        <mxCell id="OFwXLJdeoRznw6b8OGi2-6" value="Считывает логин имя и статус подписки" style="shape=parallelogram;perimeter=parallelogramPerimeter;whiteSpace=wrap;html=1;fixedSize=1;" vertex="1" parent="1">
          <mxGeometry x="354" y="290" width="120" height="60" as="geometry" />
        </mxCell>
        <mxCell id="OFwXLJdeoRznw6b8OGi2-11" value="" style="edgeStyle=orthogonalEdgeStyle;rounded=0;orthogonalLoop=1;jettySize=auto;html=1;" edge="1" parent="1" source="OFwXLJdeoRznw6b8OGi2-8" target="OFwXLJdeoRznw6b8OGi2-10">
          <mxGeometry relative="1" as="geometry" />
        </mxCell>
        <mxCell id="OFwXLJdeoRznw6b8OGi2-13" value="" style="edgeStyle=orthogonalEdgeStyle;rounded=0;orthogonalLoop=1;jettySize=auto;html=1;" edge="1" parent="1" source="OFwXLJdeoRznw6b8OGi2-8" target="OFwXLJdeoRznw6b8OGi2-12">
          <mxGeometry relative="1" as="geometry" />
        </mxCell>
        <mxCell id="OFwXLJdeoRznw6b8OGi2-8" value="if = IsPremium&amp;nbsp;" style="rhombus;whiteSpace=wrap;html=1;" vertex="1" parent="1">
          <mxGeometry x="359" y="380" width="110" height="90" as="geometry" />
        </mxCell>
        <mxCell id="OFwXLJdeoRznw6b8OGi2-10" value="Вывести приветствие и имя пользователя&amp;nbsp;" style="shape=parallelogram;perimeter=parallelogramPerimeter;whiteSpace=wrap;html=1;fixedSize=1;" vertex="1" parent="1">
          <mxGeometry x="210" y="480" width="120" height="60" as="geometry" />
        </mxCell>
        <mxCell id="OFwXLJdeoRznw6b8OGi2-12" value="Запустить Метод&amp;nbsp;ShowAds();" style="shape=parallelogram;perimeter=parallelogramPerimeter;whiteSpace=wrap;html=1;fixedSize=1;" vertex="1" parent="1">
          <mxGeometry x="490" y="480" width="140" height="60" as="geometry" />
        </mxCell>
        <mxCell id="OFwXLJdeoRznw6b8OGi2-14" value="true" style="text;strokeColor=none;align=center;fillColor=none;html=1;verticalAlign=middle;whiteSpace=wrap;rounded=0;" vertex="1" parent="1">
          <mxGeometry x="250" y="400" width="60" height="30" as="geometry" />
        </mxCell>
        <mxCell id="OFwXLJdeoRznw6b8OGi2-17" value="false" style="text;html=1;align=center;verticalAlign=middle;resizable=0;points=[];autosize=1;strokeColor=none;fillColor=none;" vertex="1" parent="1">
          <mxGeometry x="520" y="400" width="50" height="30" as="geometry" />
        </mxCell>
        <mxCell id="OFwXLJdeoRznw6b8OGi2-20" value="Конец" style="ellipse;whiteSpace=wrap;html=1;" vertex="1" parent="1">
          <mxGeometry x="354" y="600" width="120" height="80" as="geometry" />
        </mxCell>
        <mxCell id="OFwXLJdeoRznw6b8OGi2-23" value="" style="endArrow=none;html=1;rounded=0;" edge="1" parent="1">
          <mxGeometry width="50" height="50" relative="1" as="geometry">
            <mxPoint x="260" y="580" as="sourcePoint" />
            <mxPoint x="560" y="580" as="targetPoint" />
          </mxGeometry>
        </mxCell>
        <mxCell id="OFwXLJdeoRznw6b8OGi2-24" value="" style="endArrow=none;html=1;rounded=0;" edge="1" parent="1">
          <mxGeometry width="50" height="50" relative="1" as="geometry">
            <mxPoint x="559.5" y="580" as="sourcePoint" />
            <mxPoint x="559.5" y="540" as="targetPoint" />
          </mxGeometry>
        </mxCell>
        <mxCell id="OFwXLJdeoRznw6b8OGi2-25" value="" style="endArrow=none;html=1;rounded=0;exitX=0.425;exitY=1.05;exitDx=0;exitDy=0;exitPerimeter=0;" edge="1" parent="1" source="OFwXLJdeoRznw6b8OGi2-10">
          <mxGeometry width="50" height="50" relative="1" as="geometry">
            <mxPoint x="262" y="690" as="sourcePoint" />
            <mxPoint x="262" y="580" as="targetPoint" />
          </mxGeometry>
        </mxCell>
        <mxCell id="OFwXLJdeoRznw6b8OGi2-28" value="" style="endArrow=classic;html=1;rounded=0;entryX=0.5;entryY=0;entryDx=0;entryDy=0;" edge="1" parent="1" target="OFwXLJdeoRznw6b8OGi2-20">
          <mxGeometry width="50" height="50" relative="1" as="geometry">
            <mxPoint x="414" y="580" as="sourcePoint" />
            <mxPoint x="440" y="560" as="targetPoint" />
          </mxGeometry>
        </mxCell>
      </root>
    </mxGraphModel>
  </diagram>
</mxfile>
